<svg xmlns="http://www.w3.org/2000/svg" viewBox="0 0 421.478 421.478"><path d="M355.586 343.938c-50.046-18.081-71.398-52.141-71.398-113.888V127.267c0-35.514-21.55-66.087-52.263-79.33 14.741-10.618 24.356-27.928 24.356-47.442h-18c0 18.901-13.035 34.814-30.588 39.221A85.832 85.832 0 00217.433 0h-18c0 15.2-5.102 29.899-14.454 41.885-33.169 4.979-60.228 28.894-69.772 60.353H91.351c-17.315 0-31.401 14.086-31.401 31.401v31.401h13.444l5.884 13.924c5.32 12.587 19.325 22.515 32.231 23.008v79.976c0 20.213 7.288 39.938 20.52 55.538 11.37 13.405 26.489 23.074 43.161 27.728v38.265h-54.68v18h96.99v-18h-24.31V377.32c15.117 12.998 34.768 20.863 56.221 20.863h9v-97.957c0-47.607-38.732-86.339-86.339-86.339h-9v97.957c0 11.289 2.178 22.078 6.135 31.971-23.483-11.179-39.696-35.362-39.696-61.868v-154.68c0-37.683 30.658-68.339 68.341-68.339 37.682 0 68.338 30.657 68.338 68.339V230.05c0 38.261 6.757 90.116 60.027 120.236H275.19v18h86.34v-22.202l-5.944-2.146zM111.509 183.94c-5.897-.573-13.133-6.027-15.651-11.984l-2.923-6.917h18.574v18.901zm0-56.673v19.772h-33.56v-13.401c0-7.39 6.012-13.401 13.401-13.401h20.441a87.46 87.46 0 00-.282 7.03zm69.562 105.21c33.445 4.418 59.338 33.117 59.338 67.749v79.367c-19.534-2.581-36.493-13.445-47.221-28.936v-.07l-.056-.01a67.95 67.95 0 01-12.063-38.733l.002-79.367zm-18.003-113.852v-18h20.156v18h-20.156z"/></svg>