<svg xmlns="http://www.w3.org/2000/svg" viewBox="0 0 423.979 423.979"><path d="M415.979 290.259h-16.544a170.308 170.308 0 004.474-15.851h12.07a8 8 0 000-16h-9.17a173.837 173.837 0 001.506-22.878c0-25.072-5.306-49.256-15.777-71.928 2.369-14.844 2.079-30.657-.865-47.047-7.531-41.942-31.561-80.133-62.711-99.67a8 8 0 00-8.501 0c-17.86 11.202-33.837 28.967-45.474 50.445a171.853 171.853 0 00-39.457-4.586h-47.082a171.883 171.883 0 00-39.456 4.586c-11.636-21.478-27.613-39.243-45.474-50.445a8 8 0 00-8.501 0c-31.151 19.537-55.181 57.729-62.711 99.669-2.944 16.391-3.234 32.204-.865 47.047-10.473 22.67-15.78 46.854-15.78 71.928 0 7.713.507 15.352 1.506 22.879H8a8 8 0 000 16h12.068a170.395 170.395 0 004.474 15.851H8a8 8 0 000 16h22.821c8.514 18.839 20.486 36.206 35.589 51.308 32.726 32.726 76.066 50.749 122.038 50.749h47.082c45.971 0 89.311-18.023 122.037-50.749 15.102-15.103 27.075-32.469 35.588-51.308h22.824a8 8 0 000-16zm-25.329-31.85H274.733a8 8 0 000 16h112.703a155.466 155.466 0 01-4.976 15.851H274.733a8 8 0 000 16h100.703c-25.896 51.013-78.888 86.057-139.906 86.057h-47.082c-61.019 0-114.011-35.043-139.908-86.057h100.705a8 8 0 000-16H41.515a155.31 155.31 0 01-4.976-15.851h112.705a8 8 0 000-16H33.326a157.543 157.543 0 01-1.665-22.879c0-23.459 5.123-46.06 15.226-67.176 6.378-11.829 14.009-23.191 22.683-33.773a8 8 0 00-12.375-10.143 231.146 231.146 0 00-11.277 14.955c.201-6.516.914-13.197 2.137-20.01 6.405-35.675 25.83-68.151 51.21-86.106 11.136 7.9 21.348 18.83 29.797 31.811-9.237-1.541-19.471-2.743-29.555-3.434a8 8 0 00-1.093 15.963c11.509.788 27.76 2.7 40.77 5.779a148.437 148.437 0 015.074 12.131 230.36 230.36 0 00-31.135-4.274c-4.401-.297-8.226 3.027-8.528 7.435a8 8 0 007.435 8.528c12.757.873 25.39 2.877 37.596 5.961a8 8 0 0015.189-4.887 165.42 165.42 0 00-8.667-26.166 155.909 155.909 0 0132.3-3.379h47.082c10.891 0 21.732 1.138 32.345 3.388-3.156 7.597-5.701 15.628-7.962 25.013a8 8 0 005.904 9.651 8 8 0 008.932-4.007c11.893-2.935 23.497-4.763 35.338-5.574a8 8 0 007.435-8.528 7.998 7.998 0 00-8.528-7.435 218.067 218.067 0 00-28.98 3.947 124.974 124.974 0 014.744-11.709c11.699-2.849 25.667-4.964 38.945-5.874a8 8 0 00-1.093-15.963 266.879 266.879 0 00-27.661 3.385c8.443-12.959 18.644-23.872 29.766-31.762 25.38 17.954 44.804 50.43 51.21 86.107 1.224 6.813 1.937 13.497 2.138 20.013a231.95 231.95 0 00-11.278-14.958 8 8 0 10-12.376 10.14c8.673 10.584 16.306 21.949 22.688 33.783 10.099 21.116 15.219 43.713 15.219 67.168a157.814 157.814 0 01-1.666 22.879zM174.239 193.96c0-20.615-16.771-37.387-37.387-37.387s-37.388 16.772-37.388 37.387 16.772 37.387 37.388 37.387 37.387-16.772 37.387-37.387zm-37.386 21.387c-11.793 0-21.388-9.594-21.388-21.387 0-11.793 9.595-21.387 21.388-21.387 11.792 0 21.387 9.594 21.387 21.387-.001 11.792-9.595 21.387-21.387 21.387zm8-23.909v5.046a8 8 0 01-16 0v-5.046a8 8 0 0116 0zm150.273 0v5.046a8 8 0 01-16 0v-5.046a8 8 0 0116 0zm-8-34.865c-20.615 0-37.387 16.772-37.387 37.387s16.771 37.387 37.387 37.387 37.387-16.771 37.387-37.387-16.772-37.387-37.387-37.387zm0 58.774c-11.792 0-21.387-9.594-21.387-21.387 0-11.793 9.594-21.387 21.387-21.387s21.387 9.594 21.387 21.387c0 11.792-9.595 21.387-21.387 21.387zm-67.137 83.99v-24.735l24.286-25.236a7.999 7.999 0 002.236-5.547v-11.1a8 8 0 00-8-8h-53.045a8 8 0 00-8 8v11.099c0 2.069.801 4.057 2.236 5.547l24.288 25.238v24.735c-5.085 14.779-21.35 27.064-36.106 27.064H134.08a8 8 0 000 16h33.803c16.788 0 33.836-9.847 44.106-24.172 10.27 14.325 27.318 24.172 44.106 24.172H289.9a8 8 0 000-16h-33.805c-14.756-.001-31.021-12.286-36.106-27.065zm-8-39.497l-18.403-19.123h36.805l-18.402 19.123z"/></svg>